<?xml version="1.0" encoding="UTF-8"?>
<svg xmlns="http://www.w3.org/2000/svg" width="67" height="78" viewBox="0 0 67 78" fill="none">
  <path d="M0.0363615 66.9734V68.9759C0.0363615 70.8327 1.56354 72.3619 3.41798 72.3619H25.2712C27.1257 72.3619 28.6528 70.8327 28.6528 68.9759V66.9734C28.6528 65.5534 27.7438 64.3155 26.5075 63.8058V62.7499V60.2013C26.5075 59.8736 26.5075 59.5824 26.4348 59.2911C26.2894 58.3445 25.8894 57.507 25.2712 56.8517C23.0168 54.3759 21.6714 51.2083 21.126 47.1669C20.9806 46.0746 20.9079 44.9459 20.8715 43.8173C20.8715 43.4532 20.8351 43.0527 20.7988 42.6886C21.126 42.6886 21.4169 42.5065 21.5624 42.2153C22.0351 41.8876 22.3987 41.4507 22.6168 40.8317C22.9805 39.7759 22.835 38.72 22.1441 37.8462C21.7805 37.3729 21.3806 36.936 21.0169 36.4991L20.9442 36.4262C23.1623 34.533 24.5804 31.7659 24.5804 28.6711C24.5804 23.0277 19.9988 18.4038 14.3264 18.4038C8.65403 18.4038 4.07249 22.9913 4.07249 28.6711C4.07249 31.8023 5.49058 34.5694 7.70863 36.4262L7.63591 36.5355C7.2723 36.9724 6.90868 37.4093 6.54507 37.8462C5.8542 38.6836 5.70875 39.7395 6.07237 40.8317C6.29054 41.4507 6.65415 41.924 7.09049 42.2153C7.23593 42.5065 7.52683 42.6886 7.85408 42.6886C7.85408 43.0527 7.81772 43.4168 7.78136 43.7809C7.70863 44.9095 7.67227 46.0382 7.52683 47.1669C6.9814 51.2083 5.63603 54.3759 3.38162 56.8517C2.79983 57.4706 2.43622 58.2352 2.25441 59.0726C2.18169 59.4367 2.14533 59.8372 2.14533 60.2013V62.7499V63.8058C0.872675 64.3155 0 65.517 0 66.9734H0.0363615ZM3.99976 60.1649H24.7258C24.7258 60.1649 24.7258 60.2013 24.7258 60.2377V63.5873H3.99976V60.2377C3.99976 60.2377 3.99976 60.2377 3.99976 60.1649ZM26.8711 68.9759C26.8711 69.8497 26.1439 70.5779 25.2712 70.5779H3.41798C2.5453 70.5779 1.81807 69.8497 1.81807 68.9759V66.9734C1.81807 66.0996 2.5453 65.3714 3.41798 65.3714H25.2712C26.1439 65.3714 26.8711 66.0996 26.8711 66.9734V68.9759ZM5.92692 28.6711C5.92692 24.0108 9.70852 20.2243 14.3628 20.2243C19.0171 20.2243 22.7986 24.0108 22.7986 28.6711C22.7986 33.3315 19.0171 37.118 14.3628 37.118C9.70852 37.118 5.92692 33.3315 5.92692 28.6711ZM7.96316 38.9749C8.32678 38.538 8.65403 38.1375 9.01765 37.7006L9.19945 37.4821C10.7266 38.3559 12.472 38.9021 14.3264 38.9021C16.1809 38.9021 17.9626 38.3559 19.4534 37.4821L19.6352 37.6642C19.9988 38.1011 20.3624 38.5016 20.726 38.9749C21.0169 39.339 21.0897 39.7395 20.9079 40.2128C20.726 40.7225 20.4715 40.8317 20.217 40.8317H19.8534H8.79948H8.50859C8.25406 40.7953 7.99953 40.6861 7.81772 40.1764C7.63591 39.7031 7.70863 39.3026 7.99953 38.9385L7.96316 38.9749ZM9.3449 47.4218C9.49035 46.2567 9.56307 45.0552 9.63579 43.8901L9.70852 42.6886H19.0171C19.0171 43.0891 19.0534 43.4896 19.0898 43.8901C19.1625 45.0552 19.1989 46.2567 19.3807 47.4218C19.9988 51.8272 21.4896 55.3225 23.9622 58.0532C24.0349 58.126 24.1077 58.2352 24.144 58.3444H4.54519C4.54519 58.3444 4.65427 58.126 4.76335 58.0532C7.2723 55.2861 8.76312 51.8272 9.3449 47.4218Z" fill="white"></path>
  <path d="M25.439 68.6599V73.211C25.439 74.0484 26.0571 74.7402 26.8571 74.7402H62.7822C63.6185 74.7402 64.3821 74.012 64.3821 73.2474V68.6674L25.439 68.6599Z" fill="#C39B82"></path>
  <path d="M29.6205 58.6186C27.3661 60.3298 25.439 61.8226 25.439 64.0799V66.0824H64.3821V64.0799C64.3821 61.8226 62.4186 60.3298 60.1642 58.6186L59.7642 58.2909C58.637 57.4171 57.8734 56.6525 57.3643 55.9243H32.4567C31.9477 56.6525 31.1841 57.4171 30.0569 58.2909L29.6205 58.6186Z" fill="#C39B82"></path>
  <mask id="path-4-inside-1_148_1180" fill="white">
    <path d="M67 73.2184V64.0798C67 60.5481 64.2365 58.4 61.7639 56.5431L61.364 56.2155C61.1094 55.997 60.9276 55.8514 60.7095 55.6693C62.673 55.0868 63.982 53.3391 63.982 51.0818C63.982 48.8244 62.273 46.6763 60.164 46.2758C57.5824 42.8534 56.1643 38.6299 56.1643 34.3701C56.1643 33.4963 56.3097 32.3312 56.637 30.9476C58.9278 30.5107 60.4549 28.6903 60.4549 26.1781C60.4549 23.6658 59.0368 21.991 56.8915 21.4813V19.7337C61.0004 18.4958 63.982 14.5636 63.982 10.1945V1.31072C63.982 0.582544 63.4002 0 62.673 0H55.5825C54.8553 0 54.2735 0.582544 54.2735 1.31072V7.13616H49.7647V1.31072C49.7647 0.582544 49.1829 0 48.4556 0H41.3652C40.6379 0 40.0561 0.582544 40.0561 1.31072V7.13616H35.5473V1.31072C35.5837 0.582544 35.0019 0 34.2747 0H27.1842C26.4569 0 25.8752 0.582544 25.8752 1.31072V10.1945C25.8752 14.5636 28.8568 18.4958 32.9657 19.7337V21.4813C30.8203 21.991 29.4022 23.7751 29.4022 26.1781C29.4022 28.7995 31.0749 30.6928 33.5838 30.984C33.8383 32.0399 34.0201 33.0958 34.0201 34.3337C34.0201 38.5935 32.602 42.817 30.0204 46.2394C27.4387 46.5671 25.8388 48.8972 25.8388 51.0454C25.8388 53.3391 27.1115 55.0504 29.1113 55.6329C28.8932 55.815 28.7477 55.997 28.4568 56.179L28.0205 56.5067C25.5843 58.3636 22.8208 60.5117 22.8208 64.0434V73.182C22.8208 75.4394 24.6389 77.2598 26.8569 77.2598H62.7821C65.0728 77.2598 66.9636 75.403 66.9636 73.182L67 73.2184ZM28.4568 10.1945V2.58504H32.9657V8.41047C32.9657 9.13865 33.5474 9.7212 34.2747 9.7212H41.3652C42.0924 9.7212 42.6742 9.13865 42.6742 8.41047V2.58504H47.183V8.41047C47.183 9.13865 47.7648 9.7212 48.492 9.7212H55.5825C56.3097 9.7212 56.8915 9.13865 56.8915 8.41047V2.58504H61.4003V10.1945C61.4003 13.6898 58.8187 16.8209 55.3643 17.4399C54.7462 17.5491 54.3098 18.0953 54.3098 18.7142V21.3357H35.62V18.7142C35.62 18.0953 35.1837 17.5491 34.5656 17.4399C31.1112 16.8209 28.5296 13.6898 28.5296 10.1945H28.4568ZM32.0203 26.1781C32.0203 24.7581 32.8566 23.9207 34.2747 23.9207H55.5825C57.0006 23.9207 57.8369 24.7581 57.8369 26.1781C57.8369 27.598 57.0006 28.4354 55.5825 28.4354H34.2747C32.8566 28.4354 32.0203 27.598 32.0203 26.1781ZM36.6382 34.3701C36.6382 33.1322 36.4564 32.0399 36.2382 31.0569H53.9826C53.7281 32.3312 53.5826 33.4598 53.5826 34.3701C53.5826 38.5571 54.8553 42.6713 57.0733 46.2394H33.1475C35.3655 42.6713 36.6382 38.5935 36.6382 34.3701ZM28.4568 51.0818C28.4568 49.9895 29.3295 48.8244 30.7112 48.8244H59.4732C60.4549 48.8244 61.364 49.9167 61.364 51.0818C61.364 52.5017 60.5277 53.3391 59.1096 53.3391H30.7112C29.2931 53.3391 28.4568 52.5017 28.4568 51.0818ZM25.4388 64.0798C25.4388 61.8224 27.366 60.3297 29.6204 58.6184L30.0567 58.2908C31.1839 57.417 31.9475 56.6524 32.4566 55.9242H57.3642C57.8733 56.6524 58.6369 57.417 59.7641 58.2908L60.164 58.6184C62.4185 60.3297 64.382 61.8224 64.382 64.0798V66.0823H25.4388V64.0798ZM25.4388 73.211V68.6599L64.382 68.6673V73.2474C64.382 74.012 63.6184 74.7402 62.7821 74.7402H26.8569C26.057 74.7402 25.4388 74.0484 25.4388 73.211Z"></path>
  </mask>
  <path d="M67 73.2184V64.0798C67 60.5481 64.2365 58.4 61.7639 56.5431L61.364 56.2155C61.1094 55.997 60.9276 55.8514 60.7095 55.6693C62.673 55.0868 63.982 53.3391 63.982 51.0818C63.982 48.8244 62.273 46.6763 60.164 46.2758C57.5824 42.8534 56.1643 38.6299 56.1643 34.3701C56.1643 33.4963 56.3097 32.3312 56.637 30.9476C58.9278 30.5107 60.4549 28.6903 60.4549 26.1781C60.4549 23.6658 59.0368 21.991 56.8915 21.4813V19.7337C61.0004 18.4958 63.982 14.5636 63.982 10.1945V1.31072C63.982 0.582544 63.4002 0 62.673 0H55.5825C54.8553 0 54.2735 0.582544 54.2735 1.31072V7.13616H49.7647V1.31072C49.7647 0.582544 49.1829 0 48.4556 0H41.3652C40.6379 0 40.0561 0.582544 40.0561 1.31072V7.13616H35.5473V1.31072C35.5837 0.582544 35.0019 0 34.2747 0H27.1842C26.4569 0 25.8752 0.582544 25.8752 1.31072V10.1945C25.8752 14.5636 28.8568 18.4958 32.9657 19.7337V21.4813C30.8203 21.991 29.4022 23.7751 29.4022 26.1781C29.4022 28.7995 31.0749 30.6928 33.5838 30.984C33.8383 32.0399 34.0201 33.0958 34.0201 34.3337C34.0201 38.5935 32.602 42.817 30.0204 46.2394C27.4387 46.5671 25.8388 48.8972 25.8388 51.0454C25.8388 53.3391 27.1115 55.0504 29.1113 55.6329C28.8932 55.815 28.7477 55.997 28.4568 56.179L28.0205 56.5067C25.5843 58.3636 22.8208 60.5117 22.8208 64.0434V73.182C22.8208 75.4394 24.6389 77.2598 26.8569 77.2598H62.7821C65.0728 77.2598 66.9636 75.403 66.9636 73.182L67 73.2184ZM28.4568 10.1945V2.58504H32.9657V8.41047C32.9657 9.13865 33.5474 9.7212 34.2747 9.7212H41.3652C42.0924 9.7212 42.6742 9.13865 42.6742 8.41047V2.58504H47.183V8.41047C47.183 9.13865 47.7648 9.7212 48.492 9.7212H55.5825C56.3097 9.7212 56.8915 9.13865 56.8915 8.41047V2.58504H61.4003V10.1945C61.4003 13.6898 58.8187 16.8209 55.3643 17.4399C54.7462 17.5491 54.3098 18.0953 54.3098 18.7142V21.3357H35.62V18.7142C35.62 18.0953 35.1837 17.5491 34.5656 17.4399C31.1112 16.8209 28.5296 13.6898 28.5296 10.1945H28.4568ZM32.0203 26.1781C32.0203 24.7581 32.8566 23.9207 34.2747 23.9207H55.5825C57.0006 23.9207 57.8369 24.7581 57.8369 26.1781C57.8369 27.598 57.0006 28.4354 55.5825 28.4354H34.2747C32.8566 28.4354 32.0203 27.598 32.0203 26.1781ZM36.6382 34.3701C36.6382 33.1322 36.4564 32.0399 36.2382 31.0569H53.9826C53.7281 32.3312 53.5826 33.4598 53.5826 34.3701C53.5826 38.5571 54.8553 42.6713 57.0733 46.2394H33.1475C35.3655 42.6713 36.6382 38.5935 36.6382 34.3701ZM28.4568 51.0818C28.4568 49.9895 29.3295 48.8244 30.7112 48.8244H59.4732C60.4549 48.8244 61.364 49.9167 61.364 51.0818C61.364 52.5017 60.5277 53.3391 59.1096 53.3391H30.7112C29.2931 53.3391 28.4568 52.5017 28.4568 51.0818ZM25.4388 64.0798C25.4388 61.8224 27.366 60.3297 29.6204 58.6184L30.0567 58.2908C31.1839 57.417 31.9475 56.6524 32.4566 55.9242H57.3642C57.8733 56.6524 58.6369 57.417 59.7641 58.2908L60.164 58.6184C62.4185 60.3297 64.382 61.8224 64.382 64.0798V66.0823H25.4388V64.0798ZM25.4388 73.211V68.6599L64.382 68.6673V73.2474C64.382 74.012 63.6184 74.7402 62.7821 74.7402H26.8569C26.057 74.7402 25.4388 74.0484 25.4388 73.211Z" fill="white" stroke="#C39B82" stroke-width="0.5" mask="url(#path-4-inside-1_148_1180)"></path>
</svg>
