<?xml version="1.0" encoding="UTF-8"?>
<svg xmlns="http://www.w3.org/2000/svg" width="52" height="76" viewBox="0 0 52 76" fill="none">
  <path d="M40.6094 64.3758V64.7508H40.9844H45.2872C46.2637 64.7508 47.0636 65.5505 47.0636 66.5253C47.0636 67.5 46.2637 68.2997 45.2872 68.2997H2.15141C1.17492 68.2997 0.375 67.5 0.375 66.5253C0.375 65.5505 1.17492 64.7508 2.15141 64.7508H6.5618H6.9368V64.3758V52.6613C6.9368 48.7967 7.78344 45.5964 9.65553 42.8367C11.5309 40.072 14.4571 37.7174 18.6714 35.5855L19.3371 35.2488L18.6697 34.9154C14.6184 32.8916 11.6881 30.562 9.77055 27.8983C7.85671 25.2397 6.9368 22.2278 6.9368 18.8076V4.29889V3.92389H6.5618H2.15141C1.17492 3.92389 0.375 3.12421 0.375 2.14944C0.375 1.17468 1.17492 0.375 2.15141 0.375H45.1796C46.1561 0.375 46.956 1.17468 46.956 2.14944C46.956 3.12421 46.1561 3.92389 45.1796 3.92389H40.8768H40.5018V4.29889V18.8076C40.5018 22.2273 39.5822 25.2121 37.6686 27.8573C35.7507 30.5084 32.8194 32.8387 28.7654 34.9172L28.1101 35.2531L28.7672 35.5855C32.9823 37.7177 35.9359 40.073 37.8382 42.8387C39.7369 45.599 40.6094 48.7989 40.6094 52.6613V64.3758ZM10.8646 3.92389H10.4896V4.29889V18.8076C10.4896 20.9003 10.85 23.3248 12.7005 25.8409C14.5434 28.3465 17.8373 30.9066 23.6278 33.3397L23.7715 33.4L23.9156 33.3408C29.7079 30.9611 33.0029 28.4005 34.8463 25.8804C36.6965 23.3508 37.0565 20.8996 37.0565 18.8076V4.29889V3.92389H36.6815H10.8646ZM23.8106 37.2695L23.6672 37.2093L23.5234 37.2682C18.1173 39.4827 14.8202 41.7716 12.8797 44.3058C10.9298 46.8522 10.3821 49.6036 10.3821 52.6613C10.3821 55.2432 10.409 57.6095 10.4359 59.6118C10.4414 60.0206 10.4469 60.414 10.4521 60.7909C10.4726 62.2617 10.4896 63.4802 10.4896 64.3758V64.7508H10.8646H36.6815H37.0565V64.3758V52.6613C37.0565 49.6527 36.4799 46.929 34.5036 44.3843C32.5374 41.8528 29.2158 39.5376 23.8106 37.2695Z" fill="white" stroke="#C39B82" stroke-width="0.75"></path>
</svg>
