<?xml version="1.0" encoding="UTF-8"?>
<svg xmlns="http://www.w3.org/2000/svg" width="67" height="64" viewBox="0 0 67 64" fill="none">
  <g clip-path="url(#clip0_285_711)">
    <path d="M37.078 63.9999C33.9424 63.9999 30.7934 63.4533 27.8186 62.3733L10.4254 56.0399C9.90282 55.8533 9.54102 55.3466 9.54102 54.7866V36.5066C9.54102 35.7733 10.144 35.1733 10.881 35.1733C10.9882 35.1733 11.3098 35.1999 11.8324 35.2399C21.5072 35.9866 29.1586 35.7199 34.5856 34.4666C36.0998 34.1199 37.6542 34.4266 38.8468 35.3333C39.9858 36.1999 40.6692 37.5199 40.7228 38.9599C40.7898 40.7333 39.9456 42.1599 38.3376 42.9866C36.3008 44.0266 34.0228 44.9733 32.3746 45.6133L34.3176 46.8399C38.5252 49.5199 43.6976 50.2266 48.4814 48.7866L59.5632 45.4533C62.3102 44.6266 65.2046 45.9066 66.4374 48.4799C67.1342 49.9466 67.1878 51.6399 66.5714 53.1466C65.955 54.6399 64.7222 55.8133 63.1812 56.3599L46.19 62.4266C43.2554 63.4799 40.1734 63.9999 37.0914 63.9999H37.078ZM12.221 53.8533L28.7432 59.8666C34.063 61.7999 39.9456 61.8266 45.2788 59.9199L62.27 53.8533C63.1008 53.5599 63.744 52.9466 64.079 52.1333C64.414 51.3199 64.3872 50.4266 64.012 49.6399C63.3554 48.2666 61.801 47.5733 60.327 48.0133L49.2452 51.3466C43.711 53.0133 37.748 52.1866 32.8704 49.0933L29.8152 47.1466C29.172 46.7333 28.8102 45.9999 28.8906 45.2399C28.971 44.4799 29.4668 43.8399 30.1904 43.5733C31.7046 43.0133 34.6124 41.8933 37.1048 40.6133C37.7882 40.2666 38.0696 39.7999 38.0428 39.0666C38.016 38.4133 37.7212 37.8399 37.212 37.4533C36.6626 37.0266 35.9122 36.8933 35.1886 37.0533C29.6142 38.3466 21.8824 38.6399 12.221 37.9333V53.8533Z" fill="white"></path>
    <path d="M10.8808 60.92H1.34C0.603 60.92 0 60.32 0 59.5866V31.7066C0 30.9733 0.603 30.3733 1.34 30.3733H10.8808C11.6178 30.3733 12.2208 30.9733 12.2208 31.7066V59.5866C12.2208 60.32 11.6178 60.92 10.8808 60.92ZM2.68 58.2533H9.5408V33.04H2.68V58.2533Z" fill="white"></path>
    <path d="M48.0124 32.44C39.021 32.44 31.7046 25.16 31.7046 16.2133C31.7046 7.26667 39.021 0 48.0124 0C57.0038 0 64.3202 7.28 64.3202 16.2267C64.3202 25.1733 57.0038 32.4533 48.0124 32.4533V32.44ZM48.0124 2.66667C40.495 2.66667 34.3846 8.74667 34.3846 16.2267C34.3846 23.7067 40.495 29.7867 48.0124 29.7867C55.5298 29.7867 61.6402 23.7067 61.6402 16.2267C61.6402 8.74667 55.5298 2.66667 48.0124 2.66667Z" fill="white"></path>
    <path d="M42.9337 16.6667C42.5719 16.6667 42.3039 16.56 42.1029 16.3467C41.9019 16.1333 41.8081 15.8267 41.8081 15.4267C41.8081 15.0267 41.9019 14.72 42.1029 14.5067C42.3039 14.2933 42.5853 14.1733 42.9337 14.1733H43.4429C43.3759 13.8933 43.3089 13.5867 43.2285 13.2667C43.1481 12.9467 43.1213 12.5733 43.1213 12.16C43.1213 11.44 43.2687 10.76 43.5501 10.1333C43.8315 9.50668 44.2469 8.94668 44.7829 8.46668C45.3189 7.98668 45.9755 7.62668 46.7393 7.34668C47.5031 7.06668 48.3741 6.93335 49.3523 6.93335C49.7543 6.93335 50.1161 6.96002 50.4377 7.01335C50.7593 7.06668 51.0407 7.13335 51.2953 7.21335C51.5499 7.29335 51.7509 7.38668 51.9117 7.49335C52.0725 7.60002 52.2065 7.69335 52.3003 7.78668C52.4477 7.93335 52.5683 8.09335 52.6353 8.26668C52.7023 8.44002 52.7425 8.64002 52.7425 8.88002C52.7425 9.04002 52.7157 9.20002 52.6487 9.33335C52.5817 9.46668 52.5147 9.58668 52.4075 9.69335C52.3003 9.80002 52.1931 9.88002 52.0591 9.93335C51.9251 9.98668 51.7777 10.0267 51.6169 10.0267C51.4561 10.0267 51.2953 10 51.1479 9.94668C51.0005 9.89335 50.8397 9.84002 50.6655 9.77335C50.4913 9.70668 50.2903 9.65335 50.0625 9.60002C49.8347 9.54668 49.5667 9.52002 49.2719 9.52002C48.8029 9.52002 48.4009 9.57335 48.0525 9.69335C47.7041 9.81335 47.4093 9.97335 47.1681 10.1867C46.9269 10.4 46.7527 10.6667 46.6321 10.9733C46.5115 11.28 46.4579 11.6133 46.4579 11.9867C46.4579 12.2 46.4579 12.4 46.4847 12.5867C46.5115 12.7733 46.5383 12.9467 46.5785 13.12C46.6187 13.2933 46.6589 13.4667 46.6991 13.64C46.7393 13.8133 46.7929 13.9867 46.8331 14.1733H50.5985C50.9603 14.1733 51.2417 14.28 51.4427 14.5067C51.6437 14.7333 51.7375 15.0267 51.7375 15.4267C51.7375 15.8267 51.6437 16.1333 51.4427 16.3467C51.2417 16.56 50.9603 16.6667 50.5985 16.6667H47.3021C47.3825 17.5733 47.3021 18.4134 47.0475 19.1867C46.7929 19.96 46.4043 20.6933 45.8683 21.4L45.8951 21.44H52.2467C52.6085 21.44 52.8899 21.56 53.0909 21.8C53.2919 22.04 53.3991 22.3733 53.3991 22.7867C53.3991 23.2 53.2919 23.5467 53.0909 23.7867C52.8899 24.0267 52.6085 24.1467 52.2467 24.1467H43.7913C43.2151 24.1467 42.7729 24 42.4647 23.6933C42.1565 23.3867 41.9957 22.9867 41.9957 22.48C41.9957 22.32 41.9957 22.16 42.0359 22.0133C42.0761 21.8667 42.1029 21.7333 42.1565 21.5867C42.2101 21.44 42.2905 21.32 42.3709 21.1733C42.4513 21.0267 42.5585 20.88 42.6657 20.72C42.8399 20.48 43.0141 20.2267 43.1883 19.9333C43.3625 19.64 43.5099 19.3467 43.6439 19.0133C43.7779 18.68 43.8717 18.32 43.9253 17.9333C43.9789 17.5467 43.9923 17.12 43.9253 16.6533H42.9471L42.9337 16.6667Z" fill="white"></path>
  </g>
  <defs>
    <clipPath id="clip0_285_711">
      <rect width="67" height="64" fill="white"></rect>
    </clipPath>
  </defs>
</svg>
