<?xml version="1.0" encoding="UTF-8"?>
<svg xmlns="http://www.w3.org/2000/svg" width="68" height="73" viewBox="0 0 68 73" fill="none">
  <g clip-path="url(#clip0_148_1188)">
    <path d="M27.9601 36.7241C28.4164 35.9448 29.3771 35.6506 30.1822 36.0111L30.3561 36.1143C31.191 36.6097 31.4693 37.7023 30.9656 38.5511C28.9496 41.8215 25.3651 43.782 21.5333 43.6948L21.5219 43.6945L21.5105 43.6948C17.6892 43.782 14.0943 41.8322 12.0789 38.5521C11.5851 37.7136 11.8532 36.6188 12.6904 36.1127C13.5189 35.6164 14.6045 35.882 15.1085 36.7274L15.1083 36.7275L15.1158 36.7394C16.5111 38.9377 18.9486 40.2228 21.5333 40.1431C24.1179 40.2228 26.5554 38.9377 27.9508 36.7394L27.9556 36.7318L27.9601 36.7241Z" fill="white" stroke="#C39B82"></path>
    <path d="M66.4946 22.4412L66.4946 22.4413L66.5025 22.4451C67.1091 22.7372 67.5 23.3591 67.5 24.0481V51.3247C67.5 61.436 60.4012 70.1492 50.5404 72.0987L50.54 72.0988C39.1525 74.3601 28.1028 66.8972 25.8547 55.4266L25.7592 54.9391L25.2711 55.0315C23.9787 55.2761 22.673 55.3878 21.353 55.3879C9.78984 55.3428 0.455739 45.8631 0.500039 34.2145V34.2126V6.93601C0.500039 6.2471 0.890974 5.62511 1.49759 5.33307L1.49765 5.33321L1.50851 5.32765C14.0928 -1.11312 28.9739 -1.11312 41.5582 5.32765L41.5582 5.32778L41.5692 5.33307C42.1758 5.62511 42.5667 6.2471 42.5667 6.93601V17.2717V17.8094L43.103 17.7704C51.1727 17.1837 59.2538 18.797 66.4946 22.4412ZM4.31722 7.94537L4.03337 8.08146V8.39623V34.2126C4.03337 43.9315 11.8701 51.8247 21.5334 51.8247C31.1966 51.8247 39.0334 43.9315 39.0334 34.2126V8.39623V8.08146L38.7495 7.94537C27.8575 2.72342 15.2092 2.72342 4.31722 7.94537ZM29.5247 53.7832L29.1553 53.9362L29.2233 54.3302C30.6809 62.7696 37.9473 68.9367 46.4667 68.9367C56.1415 68.9367 63.9667 61.0433 63.9667 51.3247V25.5083V25.1901L63.6784 25.0553C57.2305 22.0411 50.1166 20.759 43.0253 21.348L42.5667 21.3861V21.8463V34.212C42.5556 42.7844 37.4059 50.5185 29.5247 53.7832Z" fill="white" stroke="#C39B82"></path>
    <path d="M37.6358 58.5516L37.6325 58.5496C36.7992 58.0551 36.5203 56.9656 37.0202 56.1175C37.8772 54.7988 38.9933 53.6764 40.3037 52.8152C45.5305 49.3879 52.5133 50.8683 55.924 56.1168C56.4138 56.9547 56.145 58.0461 55.3096 58.5512C54.4811 59.0475 53.3954 58.7818 52.8915 57.9364L52.8832 57.9225L52.874 57.9091C52.3323 57.1215 51.6665 56.4375 50.8752 55.898C47.3367 53.4475 42.5032 54.352 40.07 57.9102L40.0601 57.9247L40.0512 57.9398C39.5577 58.7825 38.4743 59.058 37.6358 58.5516Z" fill="white" stroke="#C39B82"></path>
  </g>
  <defs>
    <clipPath id="clip0_148_1188">
      <rect width="68" height="73" fill="white"></rect>
    </clipPath>
  </defs>
</svg>
