<?xml version="1.0" encoding="UTF-8"?>
<svg xmlns="http://www.w3.org/2000/svg" width="60" height="60" viewBox="0 0 60 60" fill="none">
  <g clip-path="url(#clip0_285_706)">
    <path d="M50.6023 5.87457L50.6027 5.87469C53.72 6.7119 55.875 9.52579 55.875 12.75V15C55.875 15.8242 55.1991 16.5 54.375 16.5H50.625H50.25V16.875V20.625C50.25 21.4492 49.5741 22.125 48.75 22.125H48.375V22.5V41.25V41.625H48.75H52.5C53.3241 41.625 54 42.3009 54 43.125V48.75V49.125H54.375C57.2804 49.125 59.625 51.4696 59.625 54.375V58.125C59.625 58.9492 58.9491 59.625 58.125 59.625H1.875C1.05086 59.625 0.375 58.9492 0.375 58.125V54.375C0.375 51.4696 2.71961 49.125 5.625 49.125H6V48.75V43.125C6 42.3009 6.67586 41.625 7.5 41.625H11.25H11.625V41.25V22.5V22.125H11.25C10.4259 22.125 9.75 21.4492 9.75 20.625V16.875V16.5H9.375H5.625C4.80086 16.5 4.125 15.8242 4.125 15V12.75C4.125 9.52579 6.27998 6.7119 9.39727 5.87469L9.39773 5.87456L29.6102 0.418315L29.6103 0.418406L29.6183 0.416037C29.868 0.342604 30.132 0.342604 30.3817 0.416037L30.3817 0.416127L30.3898 0.418315L50.6023 5.87457ZM45.375 22.5V22.125H45H37.5H37.125V22.5V41.25V41.625H37.5H45H45.375V41.25V22.5ZM46.875 19.125H47.25V18.75V16.875V16.5H46.875H13.125H12.75V16.875V18.75V19.125H13.125H46.875ZM9.375 44.625H9V45V48.75V49.125H9.375H50.625H51V48.75V45V44.625H50.625H9.375ZM34.125 22.5V22.125H33.75H26.25H25.875V22.5V41.25V41.625H26.25H33.75H34.125V41.25V22.5ZM22.875 22.5V22.125H22.5H15H14.625V22.5V41.25V41.625H15H22.5H22.875V41.25V22.5ZM52.5 13.5H52.875V13.125V12.75C52.875 10.8943 51.6187 9.24435 49.8215 8.76891C49.8213 8.76885 49.8211 8.76879 49.8208 8.76873L30.0974 3.4629L30 3.43669L29.9026 3.4629L10.1776 8.76915L10.1776 8.76914L10.1753 8.76978C8.38404 9.26391 7.125 10.8911 7.125 12.75V13.125V13.5H7.5H52.5ZM3.375 56.25V56.625H3.75H56.25H56.625V56.25V54.375C56.625 53.1367 55.6134 52.125 54.375 52.125H5.625C4.38664 52.125 3.375 53.1367 3.375 54.375V56.25Z" fill="white" stroke="#C39B82" stroke-width="0.75"></path>
  </g>
  <defs>
    <clipPath id="clip0_285_706">
      <rect width="60" height="60" fill="white"></rect>
    </clipPath>
  </defs>
</svg>
