<svg width="17" height="22" viewBox="0 0 17 22" fill="none" xmlns="http://www.w3.org/2000/svg">
<path fill-rule="evenodd" clip-rule="evenodd" d="M16.9903 10.0005C16.3035 7.84403 15.0176 6.69497 13.2308 6.39065C14.3773 1.25399 12.1619 2.25089 11.284 3.47341C12.8022 2.58669 13.0656 3.55211 12.5234 5.28357C10.5197 2.95397 10.0446 3.741 8.50571 5.66659C6.96681 3.741 6.49172 2.95397 4.48805 5.28357C3.94066 3.55211 4.20403 2.58669 5.72227 3.47341C4.84437 2.24565 2.62898 1.25399 3.77541 6.39065C1.98864 6.68972 0.70278 7.83878 0.0159567 10.0005C-0.107981 8.04865 0.470396 6.29096 2.44308 4.93728C2.21586 1.63701 3.57401 -0.0629623 6.49172 2.59719C6.68795 2.56046 6.87902 2.58669 7.06493 2.66539C6.71894 1.87837 6.08375 1.14906 4.9838 1.02838C6.77574 0.545671 8.04094 1.07036 8.50054 2.5762C8.96531 1.07036 10.2305 0.540425 12.0173 1.02838C10.9173 1.14906 10.2822 1.87837 9.93616 2.66539C10.1272 2.58669 10.3131 2.56046 10.5094 2.59719C13.4322 -0.0629623 14.7852 1.63701 14.558 4.93728C16.5307 6.29621 17.1039 8.04865 16.9851 10.0005M8.49538 19.3713C6.70344 17.2464 3.07826 16.9263 3.15572 12.2829C0.733764 18.4112 6.71377 19.2349 8.49538 22C10.277 19.2349 16.2518 18.4112 13.835 12.2829C13.9125 16.9263 10.2925 17.2464 8.49538 19.3713ZM8.49538 1.38517C8.68129 0.960172 9.00662 0.629621 9.5282 0.435488C9.2545 0.0944431 8.87236 0 8.49538 0C8.1184 0 7.73626 0.09969 7.46256 0.435488C7.98414 0.634868 8.30947 0.965419 8.49538 1.38517ZM15.0744 15.9084C15.9523 13.5316 15.596 11.5588 13.6595 10.0949C13.4529 10.7088 12.9313 11.0603 12.5698 11.5483C13.0966 12.6606 13.0966 13.8884 11.4905 14.4813C11.5112 16.155 9.49721 16.601 8.50054 17.6556C7.50388 16.5958 5.48988 16.155 5.51054 14.4813C3.89935 13.8936 3.90451 12.6659 4.43125 11.5483C4.0646 11.0656 3.54819 10.714 3.33646 10.0949C1.39993 11.5588 1.03844 13.5368 1.9215 15.9084C0.093418 13.4529 0.320637 10.3205 3.06793 8.09063C2.61349 7.90699 2.11774 7.89125 1.56002 8.12736C2.49472 7.27212 3.49655 6.9678 4.59133 7.40329C4.7824 8.1431 3.10408 9.25543 5.29881 10.2471C6.03211 9.35512 6.83255 8.61006 6.76541 7.81779C6.4659 7.95421 6.09925 8.00143 5.70678 7.53971C5.42791 7.21441 5.14389 6.89959 4.69978 6.75268C6.10441 6.44312 7.53486 6.53232 7.3128 8.311C7.14755 9.6227 6.22318 10.1684 5.62931 11.2073C4.66363 12.8967 5.68612 13.7625 7.16305 13.0961C8.84654 12.3353 7.63298 11.8001 7.21469 11.4539C6.31097 10.7036 6.61565 10.2313 7.26116 10.436C7.74659 10.5829 7.88085 10.84 8.50571 10.84C9.13056 10.84 9.26483 10.5881 9.75025 10.436C10.4009 10.2313 10.7056 10.7036 9.79673 11.4539C9.3836 11.8001 8.16488 12.3353 9.84837 13.0961C11.3201 13.7625 12.3478 12.8967 11.3821 11.2073C10.7934 10.1736 9.86386 9.62795 9.69861 8.311C9.47139 6.53232 10.9018 6.44837 12.3116 6.75268C11.8675 6.89959 11.5835 7.21441 11.3046 7.53971C10.9173 8.00143 10.5455 7.95421 10.2512 7.81779C10.184 8.61006 10.9793 9.35512 11.7178 10.2471C13.9125 9.25018 12.2342 8.13785 12.4252 7.40329C13.5149 6.96256 14.5167 7.27212 15.4514 8.12736C14.8937 7.89125 14.3979 7.90699 13.9435 8.09063C16.6856 10.3205 16.918 13.4529 15.0899 15.9137M9.98264 13.8936C9.46623 13.6051 8.93433 13.4162 8.51087 12.9964C8.08225 13.4162 7.55035 13.6051 7.03911 13.8936C5.64997 14.6649 7.48322 15.3627 8.51087 16.2232C9.54369 15.368 11.3769 14.6649 9.98264 13.8936Z" fill="#C39B82"/>
</svg>
