<svg width="17" height="19" viewBox="0 0 17 19" fill="none" xmlns="http://www.w3.org/2000/svg">
<g clip-path="url(#clip0_148_3102)">
<path fill-rule="evenodd" clip-rule="evenodd" d="M0.877584 1.37015C0.543157 1.64976 0.306272 2.02725 0.194797 2.44667C0.194797 2.44667 0.194797 2.44667 0.194797 2.45366C-0.578564 5.59936 0.947256 9.11555 4.28455 13.1001C7.58004 17.0357 10.8198 19.2027 14.0247 18.979C14.0247 18.979 14.0247 18.979 14.0317 18.979C14.4567 18.9441 14.8677 18.7763 15.1952 18.5037C15.4669 18.28 15.871 17.9445 16.2542 17.6229C17.1391 16.8749 17.2505 15.5537 16.512 14.666L14.7214 12.5269C14.3661 12.1005 13.8575 11.8348 13.3001 11.7859C12.7497 11.737 12.1993 11.9117 11.7743 12.2682L11.2309 12.7296C10.987 12.9323 10.6456 12.9463 10.3878 12.7715C9.52389 12.0795 8.61816 11.1568 7.78209 10.1641C6.95299 9.17147 6.2075 8.10892 5.68496 7.15124C5.54562 6.86463 5.61529 6.5221 5.85914 6.31937C5.85914 6.31937 5.86611 6.31238 5.87308 6.30539C6.04029 6.15859 6.22144 6.0048 6.40258 5.85102C6.82758 5.4945 7.09234 4.9842 7.14111 4.42497C7.18988 3.87272 7.0157 3.32048 6.66037 2.89406L4.8698 0.747999C4.1243 -0.139786 2.8075 -0.251633 1.92267 0.489353L0.877584 1.37015ZM1.77635 2.43968L2.82144 1.55889C3.11406 1.31422 3.55299 1.34918 3.80381 1.64277L5.59439 3.78185C5.71283 3.92166 5.76857 4.1104 5.75463 4.29215C5.7407 4.4739 5.65012 4.64866 5.51078 4.7675C5.32267 4.92828 5.12758 5.08906 4.9534 5.24285C4.22881 5.85801 4.01283 6.90657 4.4448 7.76639C4.4448 7.76639 4.4448 7.78038 4.45176 7.78737C5.00914 8.82894 5.81734 9.98236 6.71611 11.0519C7.61488 12.1284 8.60422 13.1211 9.51693 13.8551C9.52389 13.8551 9.53086 13.8621 9.53783 13.869C10.3182 14.4492 11.3841 14.4143 12.1296 13.7921L12.6731 13.3308C12.8124 13.2119 13.0005 13.156 13.1817 13.17C13.3698 13.184 13.537 13.2749 13.6555 13.4147L15.446 15.5537C15.6968 15.8473 15.655 16.2877 15.3624 16.5394C14.9862 16.854 14.5891 17.1895 14.3243 17.4062C14.3243 17.4062 14.3173 17.4062 14.3104 17.4132C14.2059 17.5041 14.0665 17.56 13.9341 17.574C11.0776 17.7697 8.2907 15.6935 5.3575 12.1913C2.3825 8.65418 0.863649 5.59237 1.54644 2.7962C1.58127 2.65639 1.66488 2.53056 1.76939 2.43968H1.77635Z" fill="#002C55"/>
</g>
<defs>
<clipPath id="clip0_148_3102">
<rect width="17" height="19" fill="white"/>
</clipPath>
</defs>
</svg>
