<svg width="108" height="81" viewBox="0 0 108 81" fill="none" xmlns="http://www.w3.org/2000/svg">
<path d="M30 0.799986L33.9 7.09999C26.7 11.9 20.3 17.5 14.7 23.9C9.3 30.3 6.6 38.2 6.6 47.6C6.6 51.2 7.1 54.6 8.1 57.8C9.1 61 10.5 62.2 12.3 61.4C12.7 61.2 12.9 60.9 12.9 60.5C12.9 59.9 12.7 59.2 12.3 58.4C11.9 57.4 11.7 56.2 11.7 54.8C11.7 52 13.1 49.5 15.9 47.3C18.9 44.9 22.2 43.7 25.8 43.7C31 43.7 35.2 45.4 38.4 48.8C41.8 52 43.5 56.2 43.5 61.4C43.5 67.2 41.7 71.9 38.1 75.5C34.5 79.1 29.8 80.9 24 80.9C16.8 80.9 11 78 6.6 72.2C2.2 66.2 4.24683e-07 58.2 4.24683e-07 48.2C4.24683e-07 36 2.8 26.5 8.4 19.7C14.2 12.7 21.4 6.39999 30 0.799986ZM94.5 0.799986L98.4 7.09999C91.2 11.9 84.8 17.5 79.2 23.9C73.8 30.3 71.1 38.2 71.1 47.6C71.1 51.2 71.6 54.6 72.6 57.8C73.6 61 75 62.2 76.8 61.4C77.2 61.2 77.4 60.9 77.4 60.5C77.4 59.9 77.2 59.2 76.8 58.4C76.4 57.4 76.2 56.2 76.2 54.8C76.2 52 77.6 49.5 80.4 47.3C83.4 44.9 86.7 43.7 90.3 43.7C95.5 43.7 99.7 45.4 102.9 48.8C106.3 52 108 56.2 108 61.4C108 67.2 106.2 71.9 102.6 75.5C99 79.1 94.3 80.9 88.5 80.9C81.3 80.9 75.5 78 71.1 72.2C66.7 66.2 64.5 58.2 64.5 48.2C64.5 36 67.3 26.5 72.9 19.7C78.7 12.7 85.9 6.39999 94.5 0.799986Z" fill="#C39B82"/>
</svg>
