<svg width="27" height="37" viewBox="0 0 27 37" fill="none" xmlns="http://www.w3.org/2000/svg">
<g clip-path="url(#clip0_148_1141)">
<path d="M12.7334 36.5088L12.7351 36.5072L12.6797 36.422C11.8779 35.1878 10.7779 33.7321 9.56606 32.1295L9.56603 32.1294L9.56501 32.1281C7.51551 29.4192 5.15438 26.2985 3.30495 23.0711C1.4542 19.8414 0.125 16.5199 0.125 13.4108C0.125 6.07402 6.1115 0.125 13.4979 0.125C20.8844 0.125 26.8709 6.07402 26.8709 13.4108C26.8709 16.5179 25.5417 19.8393 23.6914 23.0696C21.8443 26.2943 19.487 29.4131 17.441 32.1202L17.434 32.1294C16.218 33.7362 15.1138 35.196 14.3119 36.4345L14.3119 36.4345C13.942 37.0065 13.1298 37.0177 12.7334 36.5088ZM17.5014 9.51807V9.51362L17.4645 9.47696C13.9471 5.98234 7.90091 8.46576 7.90091 13.4149C7.90091 18.3641 13.943 20.8474 17.4644 17.3529L17.4645 17.3529C19.6413 15.1901 19.6536 11.6959 17.5014 9.51807ZM13.4044 34.0622L13.506 34.2049L13.6079 34.0623C14.3339 33.0462 15.1522 31.9596 16.0082 30.8231C17.6032 28.7051 19.3288 26.4138 20.8301 24.083C23.1371 20.5013 24.9395 16.791 24.9395 13.4149C24.9395 7.13938 19.8205 2.05462 13.5062 2.05462C7.19204 2.05462 2.06464 7.13924 2.06464 13.4108C2.06464 16.2291 3.35673 19.3352 5.12549 22.3716C6.8958 25.4106 9.1543 28.3971 11.1051 30.9766L11.1229 31L11.1311 31.0042C11.1811 31.0703 11.2309 31.1361 11.2805 31.2017C12.0544 32.2255 12.7799 33.1851 13.4044 34.0622ZM5.96127 13.4108C5.96127 9.27353 9.33594 5.91949 13.5021 5.91949C20.2013 5.91949 23.5739 14.0025 18.8363 18.7095C14.096 23.4192 5.96127 20.0631 5.96127 13.4108Z" fill="#C39B82" stroke="#002C55" stroke-width="0.25"/>
</g>
<defs>
<clipPath id="clip0_148_1141">
<rect width="27" height="37" fill="white"/>
</clipPath>
</defs>
</svg>
