<svg width="43" height="43" viewBox="0 0 43 43" fill="none" xmlns="http://www.w3.org/2000/svg">
<g clip-path="url(#clip0_294_4158)">
<path d="M21.4916 0.0134738C27.5942 0.0134738 33.6967 0.0302799 39.7993 2.89974e-05C41.4248 -0.00669343 42.7414 1.15629 42.9597 2.58816C42.9832 2.74614 42.9966 2.90748 42.9966 3.06546C42.9966 15.3574 42.9966 27.6494 42.9966 39.9413C42.9966 41.5715 41.7002 42.9194 40.078 42.9899C39.9706 42.9933 39.8631 42.9933 39.7556 42.9933C27.5774 42.9933 15.3991 42.9933 3.21753 42.9933C1.68937 42.9933 0.534015 42.1732 0.130985 40.785C0.0470202 40.4926 0.00335859 40.18 0 39.8775C0 27.6326 0 15.3776 0 3.12596C0 1.38149 1.31321 0.0370023 3.05967 0.0168351C4.53409 2.89973e-05 6.01187 0.0134738 7.48629 0.0134738C12.1547 0.0134738 16.8232 0.0134738 21.4882 0.0134738H21.4916ZM22.9324 18.89C22.9324 18.0329 22.919 17.2968 22.9392 16.5607C22.9492 16.2011 22.8518 16.07 22.469 16.0767C20.7124 16.0969 18.9559 16.1002 17.1993 16.0767C16.7829 16.07 16.6855 16.2078 16.6855 16.6044C16.6955 23.1386 16.6955 29.6728 16.6855 36.207C16.6855 36.607 16.7896 36.7448 17.2027 36.7414C19.0264 36.7213 20.8501 36.7213 22.6738 36.7414C23.0802 36.7448 23.1944 36.6238 23.1911 36.2137C23.1743 32.9265 23.1743 29.6392 23.1911 26.3519C23.1944 25.673 23.2381 24.9839 23.3556 24.315C23.6042 22.9235 24.2356 21.7975 25.7234 21.4278C26.1835 21.3135 26.6773 21.2933 27.1542 21.2967C28.6353 21.3135 29.6093 22.0328 29.9418 23.4747C30.1366 24.315 30.2105 25.1957 30.2172 26.0595C30.2474 29.4409 30.234 32.8223 30.2239 36.2037C30.2239 36.5969 30.3247 36.7482 30.7445 36.7448C32.5682 36.7246 34.3919 36.728 36.2157 36.7448C36.6053 36.7482 36.7127 36.6238 36.7127 36.2373C36.6993 32.6004 36.7026 28.9636 36.7127 25.3268C36.7161 23.8344 36.6388 22.3521 36.2963 20.8967C35.8294 18.9102 34.9125 17.2128 32.9578 16.3389C31.0166 15.4683 28.9813 15.2969 26.9191 15.8347C25.2264 16.2784 23.94 17.317 22.9358 18.8934L22.9324 18.89ZM12.7929 26.3755C12.7929 23.1016 12.7895 19.8312 12.7996 16.5574C12.7996 16.1944 12.6988 16.0734 12.3227 16.0767C10.4721 16.0935 8.6215 16.0935 6.77091 16.0767C6.40819 16.0767 6.29399 16.1708 6.29399 16.5473C6.30407 23.1185 6.30407 29.693 6.29399 36.2642C6.29399 36.6541 6.43505 36.7381 6.78435 36.7347C8.60806 36.7246 10.4318 36.7314 12.2555 36.728C12.7929 36.728 12.7929 36.728 12.7929 36.1902C12.7929 32.9164 12.7929 29.6459 12.7929 26.3721V26.3755ZM9.55182 13.3272C11.6207 13.3272 13.2799 11.6735 13.2799 9.60974C13.2799 7.52579 11.6174 5.85862 9.53839 5.85862C7.45942 5.85862 5.81036 7.52242 5.81372 9.62318C5.81372 11.687 7.47286 13.3306 9.54847 13.3272H9.55182Z" fill="#C39B82"/>
<path d="M22.929 18.89C23.9333 17.3102 25.2196 16.2716 26.9123 15.8313C28.9711 15.2935 31.0098 15.4649 32.9511 16.3355C34.9058 17.2128 35.8227 18.9068 36.2895 20.8933C36.6321 22.3487 36.7093 23.831 36.706 25.3234C36.6959 28.9602 36.6959 32.597 36.706 36.2339C36.706 36.6171 36.5985 36.7448 36.2089 36.7414C34.3852 36.7246 32.5615 36.7246 30.7378 36.7414C30.3213 36.7448 30.2172 36.5935 30.2172 36.2003C30.2306 32.8189 30.2407 29.4375 30.2105 26.0561C30.2037 25.1923 30.1265 24.3117 29.9351 23.4713C29.6026 22.0294 28.6319 21.3134 27.1474 21.2933C26.6705 21.2866 26.1768 21.3101 25.7167 21.4244C24.2288 21.7941 23.594 22.9235 23.3489 24.3117C23.2313 24.9805 23.1877 25.6696 23.1843 26.3485C23.1675 29.6358 23.1709 32.9231 23.1843 36.2103C23.1843 36.6204 23.0735 36.7414 22.6671 36.7381C20.8434 36.7213 19.0196 36.7179 17.1959 36.7381C16.7828 36.7414 16.6787 36.6036 16.6787 36.2036C16.6888 29.6694 16.6888 23.1352 16.6787 16.601C16.6787 16.2044 16.7728 16.07 17.1926 16.0733C18.9491 16.0968 20.7057 16.0935 22.4622 16.0733C22.8451 16.07 22.9458 16.201 22.9324 16.5573C22.9122 17.2934 22.9257 18.0295 22.9257 18.8867L22.929 18.89Z" fill="#CCD6EB"/>
<path d="M12.7899 26.3721C12.7899 29.646 12.7899 32.9164 12.7899 36.1902C12.7899 36.7247 12.7899 36.728 12.2525 36.728C10.4288 36.728 8.60508 36.7213 6.78137 36.7348C6.43208 36.7348 6.29102 36.6541 6.29102 36.2642C6.30445 29.693 6.30109 23.1185 6.29102 16.5473C6.29102 16.1709 6.40521 16.0734 6.76794 16.0767C8.61852 16.0935 10.4691 16.0935 12.3197 16.0767C12.6958 16.0734 12.7966 16.1944 12.7966 16.5574C12.7865 19.8312 12.7899 23.1017 12.7899 26.3755V26.3721Z" fill="#CCD6EB"/>
<path d="M9.54823 13.3238C7.47262 13.3238 5.81684 11.6836 5.81348 9.61978C5.81348 7.51903 7.45583 5.85522 9.53815 5.85522C11.6171 5.85522 13.2796 7.52575 13.2796 9.60634C13.2796 11.6701 11.6205 13.3205 9.55159 13.3238H9.54823Z" fill="#CCD6EB"/>
</g>
<defs>
<clipPath id="clip0_294_4158">
<rect width="43" height="43" fill="white"/>
</clipPath>
</defs>
</svg>
