<svg width="43" height="43" viewBox="0 0 43 43" fill="none" xmlns="http://www.w3.org/2000/svg">
<g clip-path="url(#clip0_148_1160)">
<path d="M43 21.5C43 9.62598 33.374 0 21.5 0C9.62598 0 0 9.62598 0 21.5C0 31.5826 6.94192 40.0433 16.3065 42.367V28.0704H11.8732V21.5H16.3065V18.6689C16.3065 11.3511 19.6183 7.9593 26.8028 7.9593C28.165 7.9593 30.5154 8.22676 31.4769 8.49336V14.4489C30.9695 14.3955 30.088 14.3689 28.9932 14.3689C25.468 14.3689 24.1058 15.7045 24.1058 19.1763V21.5H31.1286L29.922 28.0704H24.1058V42.8426C34.7517 41.5569 43.0009 32.4925 43.0009 21.5H43Z" fill="#C39B82"/>
</g>
<defs>
<clipPath id="clip0_148_1160">
<rect width="43" height="43" fill="white"/>
</clipPath>
</defs>
</svg>
