<svg width="21" height="15" viewBox="0 0 21 15" fill="none" xmlns="http://www.w3.org/2000/svg">
<g clip-path="url(#clip0_148_3106)">
<path d="M18.7221 0.5H2.27792C1.02147 0.5 0 1.5365 0 2.81144V12.1886C0 13.4635 1.02147 14.5 2.27792 14.5H18.7221C19.9785 14.5 21 13.4635 21 12.1886V2.81144C21 1.5365 19.9785 0.5 18.7221 0.5ZM14.4971 7.03771L19.7867 2.64355C19.7963 2.69951 19.8035 2.75304 19.8035 2.81144V12.1886C19.8035 12.2202 19.7963 12.2494 19.7939 12.281L14.4971 7.03771ZM18.7221 1.71654C18.8084 1.71654 18.8899 1.72871 18.9691 1.74818L10.5 8.78467L2.03094 1.74818C2.11007 1.72871 2.19399 1.71654 2.27792 1.71654H18.7221ZM1.2085 12.281C1.2061 12.2494 1.1989 12.2202 1.1989 12.1886V2.81144C1.1989 2.75304 1.2061 2.69951 1.21569 2.64355L6.50525 7.03771L1.2085 12.281ZM2.27792 13.2835C2.16762 13.2835 2.06451 13.2616 1.9638 13.2299L7.4356 7.81144L10.5 10.3564L13.562 7.81144L19.0338 13.2299C18.9331 13.2616 18.83 13.2835 18.7197 13.2835H2.27792Z" fill="#002C55"/>
</g>
<defs>
<clipPath id="clip0_148_3106">
<rect width="21" height="14" fill="white" transform="translate(0 0.5)"/>
</clipPath>
</defs>
</svg>
