<svg width="91" height="91" viewBox="0 0 91 91" fill="none" xmlns="http://www.w3.org/2000/svg">
<g clip-path="url(#clip0_541_381)">
<path d="M45.5 0C20.4 0 0 20.4 0 45.5C0 70.6 20.4 91 45.5 91C70.6 91 91 70.6 91 45.5C91 20.4 70.6 0 45.5 0ZM45.5 86C23.2 86 5 67.8 5 45.5C5 23.2 23.2 5 45.5 5C67.8 5 86 23.2 86 45.5C86 67.8 67.8 86 45.5 86Z" fill="#002C55"/>
<path d="M63.3001 43.8L37.1001 28.7C36.5001 28.3 35.7001 28.3 35.1001 28.7C34.5001 29.1 34.1001 29.7 34.1001 30.4V60.6C34.1001 61.3 34.5001 62 35.1001 62.3C35.4001 62.5 35.8001 62.6 36.1001 62.6C36.4001 62.6 36.8001 62.5 37.1001 62.3L63.3001 47.2C63.9001 46.8 64.3001 46.2 64.3001 45.5C64.3001 44.8 63.9001 44.1 63.3001 43.8Z" fill="#002C55"/>
</g>
<defs>
<clipPath id="clip0_541_381">
<rect width="91" height="91" rx="20" fill="white"/>
</clipPath>
</defs>
</svg>
