<svg width="294" height="63" viewBox="0 0 294 63" fill="none" xmlns="http://www.w3.org/2000/svg">
<path d="M0 54.6741C0 51.2626 2.63547 48.7678 6.18498 48.7678C7.98259 48.7678 9.55169 49.384 10.6181 50.5713L9.53645 51.6082C8.63765 50.6765 7.5408 50.2406 6.24592 50.2406C3.61044 50.2406 1.6605 52.1192 1.6605 54.6741C1.6605 57.2289 3.61044 59.1075 6.24592 59.1075C7.52557 59.1075 8.62241 58.6567 9.53645 57.7249L10.6181 58.7619C9.55169 59.9491 7.98259 60.5803 6.16975 60.5803C2.63547 60.5803 0 58.0856 0 54.6741Z" fill="white"/>
<path d="M22.0892 54.6741C22.0892 51.2926 24.7247 48.7678 28.3047 48.7678C31.8847 48.7678 34.4897 51.2776 34.4897 54.6741C34.4897 58.0705 31.8542 60.5803 28.3047 60.5803C24.7552 60.5803 22.0892 58.0555 22.0892 54.6741ZM32.8292 54.6741C32.8292 52.1192 30.8945 50.2406 28.3199 50.2406C25.7454 50.2406 23.765 52.1192 23.765 54.6741C23.765 57.2289 25.6997 59.1075 28.3199 59.1075C30.9402 59.1075 32.8292 57.2289 32.8292 54.6741Z" fill="white"/>
<path d="M57.3406 48.9031V60.4451H55.9695L48.9772 51.8337V60.4451H47.3167V48.9031H48.6877L55.6801 57.5145V48.9031H57.3406Z" fill="white"/>
<path d="M70.0305 59.1225L70.6551 57.8301C71.5234 58.6116 73.0011 59.1676 74.5093 59.1676C76.5202 59.1676 77.3885 58.3861 77.3885 57.3792C77.3885 54.5538 70.32 56.3422 70.32 52.0591C70.32 50.2707 71.7215 48.7678 74.7835 48.7678C76.1546 48.7678 77.5713 49.1285 78.5311 49.7898L77.9826 51.1123C76.962 50.4661 75.8194 50.1805 74.7835 50.1805C72.8031 50.1805 71.95 51.0071 71.95 52.014C71.95 54.8394 79.0185 53.066 79.0185 57.3041C79.0185 59.0624 77.5865 60.5803 74.5093 60.5803C72.7269 60.5803 70.975 59.9792 70.0457 59.1225H70.0305Z" fill="white"/>
<path d="M91.6322 55.4706V48.9031H93.2927V55.3954C93.2927 57.9503 94.481 59.1075 96.5832 59.1075C98.6855 59.1075 99.889 57.9503 99.889 55.3954V48.9031H101.504V55.4706C101.504 58.822 99.6605 60.5803 96.568 60.5803C93.4755 60.5803 91.6322 58.822 91.6322 55.4706Z" fill="white"/>
<path d="M115.199 48.9031H116.86V59.0023H123.182V60.4451H115.199V48.9031Z" fill="white"/>
<path d="M136.649 50.3459H132.642V48.9182H142.285V50.3459H138.294V60.4602H136.649V50.3459Z" fill="white"/>
<path d="M154.396 48.9031H156.057V60.4451H154.396V48.9031Z" fill="white"/>
<path d="M179.882 48.9031V60.4451H178.511L171.519 51.8337V60.4451H169.859V48.9031H171.23L178.222 57.5145V48.9031H179.882Z" fill="white"/>
<path d="M201.728 54.6141H203.328V59.1227C202.154 60.0995 200.54 60.5955 198.91 60.5955C195.33 60.5955 192.694 58.1007 192.694 54.6892C192.694 51.2777 195.33 48.783 198.94 48.783C200.783 48.783 202.353 49.3991 203.419 50.5563L202.383 51.5783C201.423 50.6615 200.311 50.2407 199.001 50.2407C196.305 50.2407 194.355 52.1043 194.355 54.6742C194.355 57.2441 196.305 59.1076 198.986 59.1076C199.976 59.1076 200.89 58.8972 201.713 58.3712V54.6141H201.728Z" fill="white"/>
<path d="M0.152344 34.2502C1.85855 34.0999 2.92493 33.7542 3.35148 33.2432C3.77803 32.7323 3.9913 31.56 3.9913 29.7416V10.535C3.9913 8.98704 3.74755 7.9651 3.2753 7.48418C2.80305 6.98823 1.76714 6.68766 0.152344 6.5524V5.72583H11.9739C15.7671 5.72583 18.6768 6.4472 20.6877 7.92001C22.6986 9.37779 23.704 11.3015 23.704 13.676C23.704 16.6967 22.592 18.8759 20.3526 20.2435C18.1132 21.5961 15.3254 22.2723 11.9739 22.2723C11.4864 22.2723 10.877 22.2723 10.1306 22.2423C9.38412 22.2273 8.82046 22.2122 8.45485 22.2122V30.2676C8.45485 31.9358 8.71382 32.9878 9.23178 33.4086C9.74973 33.8444 10.9075 34.1149 12.7051 34.2502V35.0767H0.167581V34.2502H0.152344ZM15.2797 8.19052C14.0152 7.63447 12.4004 7.36395 10.4657 7.36395C9.55169 7.36395 8.98803 7.45412 8.77476 7.63447C8.56148 7.81481 8.45485 8.22058 8.45485 8.83676V20.4088C9.26225 20.4839 9.7802 20.529 10.0392 20.5441C10.2829 20.5441 10.5267 20.5591 10.7552 20.5591C12.8118 20.5591 14.4266 20.2735 15.6148 19.6874C17.7628 18.6354 18.8292 16.6667 18.8292 13.7812C18.8292 11.061 17.6409 9.19744 15.2797 8.19052Z" fill="white"/>
<path d="M20.8857 35.0768V34.2502C22.0435 34.1149 22.8966 33.6941 23.4755 32.9577C24.0544 32.2213 25.0446 30.2375 26.4461 26.9613L35.7845 5.18481H36.6834L47.8498 30.3277C48.5963 31.9959 49.1904 33.0178 49.6322 33.4236C50.074 33.8294 50.8205 34.0849 51.8716 34.2351V35.0617H40.4766V34.2351C41.7867 34.1149 42.6246 33.9797 43.0054 33.8143C43.3863 33.649 43.5691 33.2433 43.5691 32.597C43.5691 32.3866 43.4929 31.9959 43.3558 31.4549C43.2187 30.9138 43.0054 30.3277 42.7465 29.7266L40.9489 25.4584H29.1425C27.9848 28.359 27.284 30.1323 27.0555 30.7786C26.827 31.4248 26.7203 31.9207 26.7203 32.2965C26.7203 33.0479 27.025 33.5589 27.6344 33.8444C28.0152 34.0097 28.7312 34.145 29.7824 34.2351V35.0617H20.901L20.8857 35.0768ZM40.1872 23.6851L35.0533 11.4668L29.889 23.6851H40.1872Z" fill="white"/>
<path d="M53.136 34.2507C54.8574 34.1004 55.9238 33.7547 56.3504 33.2588C56.7769 32.7628 56.9902 31.5906 56.9902 29.7421V10.5355C56.9902 8.9725 56.7464 7.95055 56.2742 7.46964C55.8019 6.98872 54.7508 6.67312 53.136 6.55289V5.72632H65.5517C68.1414 5.72632 70.2894 6.05695 72.0108 6.70318C75.2861 7.93553 76.9162 10.1898 76.9162 13.4661C76.9162 15.6753 76.185 17.3735 74.7377 18.5457C73.2905 19.733 71.3101 20.4995 68.8117 20.8752L78.0435 32.1316C78.6071 32.8229 79.186 33.3189 79.7497 33.6345C80.3134 33.9501 81.0446 34.1455 81.9434 34.2356V35.0622H74.7225L63.5103 21.4012L61.5451 21.5064V30.253C61.5451 31.8912 61.8041 32.9281 62.3068 33.379C62.8096 33.8148 63.9064 34.1154 65.5974 34.2507V35.0772H53.136V34.2507ZM68.4613 18.8764C70.8378 17.9145 72.0261 16.0961 72.0261 13.421C72.0261 10.7459 70.9597 9.10776 68.827 8.16096C67.6844 7.64998 66.1762 7.40952 64.3025 7.40952C63.0381 7.40952 62.2611 7.4997 61.9717 7.68004C61.6822 7.86038 61.5451 8.28118 61.5451 8.94244V19.8683C64.7747 19.748 67.0751 19.4174 68.4613 18.8764Z" fill="white"/>
<path d="M83.345 34.3254C85.173 34.1752 86.3004 33.8596 86.7421 33.3636C87.1839 32.8677 87.3972 31.6804 87.3972 29.8018V10.5351C87.3972 8.92706 87.1535 7.89009 86.666 7.4242C86.1785 6.95831 85.0664 6.65774 83.345 6.55254V5.72597H96.111V6.55254C94.3591 6.64271 93.2318 6.92826 92.7139 7.4242C92.2111 7.92015 91.9522 8.95712 91.9522 10.5351V19.6274C94.7095 17.298 96.9641 15.3142 98.716 13.6761C101.854 10.7305 103.423 8.83689 103.423 7.99529C103.423 7.40917 103.164 7.01843 102.616 6.82306C102.083 6.64271 101.321 6.53751 100.346 6.53751V5.71094H112.091V6.53751C110.659 6.67277 109.532 6.94329 108.709 7.36409C107.887 7.76986 106.744 8.65655 105.282 10.0392L96.5376 18.0645L107.217 29.4862C109.167 31.5301 110.477 32.8226 111.177 33.3336C111.878 33.8445 112.914 34.1752 114.27 34.3405V35.0919H100.559V34.3405C101.793 34.2954 102.646 34.2052 103.073 34.0549C103.515 33.9046 103.728 33.6041 103.728 33.1532C103.728 32.9128 103.591 32.537 103.301 32.0261C103.012 31.5151 102.57 30.929 101.961 30.2677L93.3232 21.0401L91.9369 22.3025V30.3278C91.9369 31.981 92.1959 33.018 92.6986 33.4688C93.2013 33.9046 94.2982 34.2052 95.9892 34.3405V35.0919H83.345V34.3405V34.3254Z" fill="white"/>
<path d="M126.091 5.72597V6.55254C125.208 6.5826 124.568 6.65774 124.187 6.793C123.517 7.03346 123.182 7.48432 123.182 8.13055C123.182 8.41609 123.227 8.70163 123.304 8.97215C123.38 9.24266 123.502 9.60335 123.669 10.0392L130.159 26.721L134.897 14.2923L132.794 8.85192C132.398 7.87506 131.804 7.2138 131.027 6.88317C130.555 6.6878 129.854 6.56757 128.91 6.55254V5.72597H140.914V6.55254C139.787 6.55254 139.01 6.64271 138.598 6.793C137.928 7.03346 137.593 7.54443 137.593 8.31089C137.593 8.56638 137.623 8.79181 137.684 8.98718C137.745 9.18255 137.882 9.58832 138.126 10.1895L144.601 26.8262L150.207 11.7675C150.527 10.9108 150.74 10.1594 150.862 9.49815C150.938 9.12244 150.968 8.82186 150.968 8.58141C150.968 7.75483 150.572 7.18374 149.78 6.86814C149.338 6.6878 148.683 6.56757 147.815 6.53751V5.71094H156.712V6.53751C155.904 6.65774 155.295 6.83808 154.868 7.07854C154.107 7.49934 153.543 8.22072 153.162 9.24267L148.47 22.4679L146.657 27.5776L143.824 35.5878H143.123L141.158 30.5082L135.963 16.8471L129.077 35.5878H128.407L125.071 26.4054L121.293 16.0055C119.739 11.7224 118.642 9.09238 118.033 8.11552C117.423 7.13866 116.448 6.61266 115.138 6.55254V5.72597H126.122H126.091Z" fill="white"/>
<path d="M152.934 35.0768V34.2502C154.091 34.1149 154.944 33.6941 155.523 32.9577C156.102 32.2213 157.092 30.2375 158.494 26.9613L167.832 5.18481H168.731L179.898 30.3277C180.644 31.9959 181.238 33.0178 181.68 33.4236C182.122 33.8294 182.868 34.0849 183.919 34.2351V35.0617H172.524V34.2351C173.835 34.1149 174.672 33.9797 175.053 33.8143C175.434 33.649 175.617 33.2433 175.617 32.597C175.617 32.3866 175.541 31.9959 175.404 31.4549C175.267 30.9138 175.053 30.3277 174.794 29.7266L172.997 25.4584H161.19C160.033 28.359 159.332 30.1323 159.103 30.7786C158.875 31.4248 158.768 31.9207 158.768 32.2965C158.768 33.0479 159.073 33.5589 159.682 33.8444C160.063 34.0097 160.779 34.145 161.83 34.2351V35.0617H152.949L152.934 35.0768ZM172.235 23.6851L167.101 11.4668L161.937 23.6851H172.235Z" fill="white"/>
<path d="M194.05 5.72583V6.5524C192.999 6.52235 192.207 6.59749 191.689 6.79286C191.171 6.98823 190.897 7.37898 190.897 8.01018C190.897 8.19052 190.942 8.43098 191.034 8.71653C191.125 9.00207 191.323 9.37779 191.628 9.82865L198.224 19.4019L204.653 9.67836C204.912 9.25756 205.079 8.9119 205.171 8.64138C205.262 8.37087 205.293 8.16047 205.293 8.04024C205.293 7.40904 204.958 6.98824 204.272 6.77783C203.861 6.64258 203.16 6.58246 202.17 6.56743V5.74086H211.965V6.56743C211.066 6.61252 210.259 6.88303 209.543 7.36395C208.431 8.13041 207.197 9.55813 205.811 11.6321L199.184 21.6411V30.2676C199.184 31.9808 199.458 33.0479 200.022 33.4837C200.585 33.9045 201.85 34.175 203.8 34.2652V35.0918H190.12V34.2652C192.146 34.145 193.41 33.8444 193.898 33.3635C194.385 32.8826 194.629 31.6803 194.629 29.7416V22.0469L188.764 13.5407C186.738 10.6101 185.306 8.73156 184.498 7.90498C183.676 7.07841 182.685 6.62755 181.528 6.56743V5.74086H194.065L194.05 5.72583Z" fill="white"/>
</svg>
