<svg width="213" height="46" viewBox="0 0 213 46" fill="none" xmlns="http://www.w3.org/2000/svg">
<g clip-path="url(#clip0_294_6688)">
<path d="M59.4453 39.9208C59.4453 37.4299 61.3547 35.6083 63.9263 35.6083C65.2286 35.6083 66.3654 36.0582 67.138 36.9251L66.3544 37.6823C65.7032 37.0019 64.9085 36.6837 63.9704 36.6837C62.061 36.6837 60.6483 38.0553 60.6483 39.9208C60.6483 41.7863 62.061 43.1579 63.9704 43.1579C64.8975 43.1579 65.6922 42.8287 66.3544 42.1484L67.138 42.9055C66.3654 43.7724 65.2286 44.2333 63.9152 44.2333C61.3547 44.2333 59.4453 42.4117 59.4453 39.9208Z" fill="#C39B82"/>
<path d="M75.4492 39.9208C75.4492 37.4518 77.3586 35.6083 79.9523 35.6083C82.5459 35.6083 84.4332 37.4408 84.4332 39.9208C84.4332 42.4008 82.5238 44.2333 79.9523 44.2333C77.3807 44.2333 75.4492 42.3898 75.4492 39.9208ZM83.2302 39.9208C83.2302 38.0553 81.8285 36.6837 79.9633 36.6837C78.0981 36.6837 76.6633 38.0553 76.6633 39.9208C76.6633 41.7863 78.0649 43.1579 79.9633 43.1579C81.8616 43.1579 83.2302 41.7863 83.2302 39.9208Z" fill="#C39B82"/>
<path d="M100.989 35.7071V44.1345H99.9955L94.9296 37.8469V44.1345H93.7266V35.7071H94.7199L99.7858 41.9948V35.7071H100.989Z" fill="#C39B82"/>
<path d="M110.182 43.1689L110.634 42.2252C111.263 42.7958 112.334 43.2018 113.426 43.2018C114.883 43.2018 115.512 42.6312 115.512 41.896C115.512 39.833 110.391 41.1388 110.391 38.0115C110.391 36.7056 111.407 35.6083 113.625 35.6083C114.618 35.6083 115.645 35.8717 116.34 36.3545L115.943 37.3201C115.203 36.8483 114.376 36.6398 113.625 36.6398C112.19 36.6398 111.572 37.2433 111.572 37.9785C111.572 40.0415 116.693 38.7467 116.693 41.8411C116.693 43.125 115.656 44.2333 113.426 44.2333C112.135 44.2333 110.866 43.7944 110.193 43.1689H110.182Z" fill="#C39B82"/>
<path d="M125.832 40.5024V35.7071H127.035V40.4475C127.035 42.313 127.896 43.1579 129.419 43.1579C130.942 43.1579 131.814 42.313 131.814 40.4475V35.7071H132.984V40.5024C132.984 42.9494 131.648 44.2333 129.408 44.2333C127.167 44.2333 125.832 42.9494 125.832 40.5024Z" fill="#C39B82"/>
<path d="M142.906 35.7071H144.109V43.0811H148.69V44.1345H142.906V35.7071Z" fill="#C39B82"/>
<path d="M158.446 36.7605H155.543V35.718H162.529V36.7605H159.638V44.1455H158.446V36.7605Z" fill="#C39B82"/>
<path d="M171.303 35.7071H172.506V44.1346H171.303V35.7071Z" fill="#C39B82"/>
<path d="M189.768 35.7071V44.1346H188.775L183.709 37.8469V44.1346H182.506V35.7071H183.499L188.565 41.9948V35.7071H189.768Z" fill="#C39B82"/>
<path d="M205.596 39.8769H206.754V43.1689C205.905 43.8822 204.735 44.2443 203.554 44.2443C200.96 44.2443 199.051 42.4227 199.051 39.9318C199.051 37.4409 200.96 35.6193 203.576 35.6193C204.911 35.6193 206.048 36.0692 206.821 36.9141L206.07 37.6603C205.375 36.991 204.569 36.6837 203.62 36.6837C201.667 36.6837 200.254 38.0444 200.254 39.9208C200.254 41.7973 201.667 43.1579 203.609 43.1579C204.326 43.1579 204.989 43.0043 205.585 42.6202V39.8769H205.596Z" fill="#C39B82"/>
<path d="M59.5547 25.0081C60.7908 24.8984 61.5634 24.646 61.8724 24.2729C62.1815 23.8998 62.336 23.0439 62.336 21.7162V7.6923C62.336 6.56205 62.1594 5.81587 61.8172 5.46472C61.4751 5.1026 60.7246 4.88314 59.5547 4.78438V4.18085H68.1193C70.8675 4.18085 72.9755 4.70756 74.4324 5.78295C75.8892 6.84736 76.6176 8.25194 76.6176 9.98571C76.6176 12.1913 75.812 13.7825 74.1895 14.781C72.5671 15.7686 70.5474 16.2624 68.1193 16.2624C67.7661 16.2624 67.3246 16.2624 66.7838 16.2405C66.243 16.2295 65.8347 16.2185 65.5698 16.2185V22.1002C65.5698 23.3183 65.7574 24.0864 66.1326 24.3936C66.5079 24.7119 67.3467 24.9094 68.649 25.0081V25.6117H59.5657V25.0081H59.5547ZM70.5143 5.98047C69.5982 5.57445 68.4283 5.37694 67.0266 5.37694C66.3644 5.37694 65.9561 5.44277 65.8015 5.57445C65.647 5.70613 65.5698 6.00241 65.5698 6.45232V14.9017C66.1547 14.9566 66.53 14.9895 66.7176 15.0005C66.8942 15.0005 67.0708 15.0115 67.2363 15.0115C68.7263 15.0115 69.8962 14.803 70.7571 14.375C72.3133 13.6069 73.0859 12.1694 73.0859 10.0625C73.0859 8.07636 72.225 6.71568 70.5143 5.98047Z" fill="#002C55"/>
<path d="M74.5762 25.6117V25.0081C75.415 24.9094 76.033 24.6021 76.4524 24.0644C76.8718 23.5267 77.5892 22.0783 78.6046 19.6861L85.3702 3.7858H86.0214L94.1114 22.1441C94.6522 23.3621 95.0826 24.1083 95.4027 24.4046C95.7228 24.7009 96.2636 24.8874 97.0251 24.9972V25.6007H88.7695V24.9972C89.7187 24.9094 90.3257 24.8106 90.6017 24.6899C90.8776 24.5692 91.01 24.2729 91.01 23.8011C91.01 23.6474 90.9548 23.3621 90.8555 22.9671C90.7562 22.5721 90.6017 22.1441 90.414 21.7052L89.1117 18.5888H80.5581C79.7193 20.7066 79.2116 22.0014 79.0461 22.4733C78.8805 22.9451 78.8033 23.3073 78.8033 23.5816C78.8033 24.1303 79.024 24.5034 79.4655 24.7118C79.7414 24.8326 80.2601 24.9313 81.0217 24.9972V25.6007H74.5872L74.5762 25.6117ZM88.5598 17.2939L84.8404 8.37263L81.0989 17.2939H88.5598Z" fill="#002C55"/>
<path d="M97.9414 25.0084C99.1886 24.8987 99.9611 24.6463 100.27 24.2841C100.579 23.922 100.734 23.0661 100.734 21.7164V7.69254C100.734 6.55132 100.557 5.80514 100.215 5.45399C99.8729 5.10285 99.1113 4.87241 97.9414 4.78462V4.18109H106.936C108.813 4.18109 110.369 4.4225 111.616 4.89435C113.989 5.79416 115.17 7.44016 115.17 9.83233C115.17 11.4454 114.64 12.6854 113.592 13.5413C112.543 14.4082 111.108 14.9678 109.298 15.2422L115.987 23.4611C116.395 23.9659 116.814 24.328 117.223 24.5585C117.631 24.7889 118.161 24.9316 118.812 24.9974V25.6009H113.581L105.458 15.6262L104.034 15.703V22.0895C104.034 23.2856 104.221 24.0427 104.586 24.3719C104.95 24.6902 105.744 24.9096 106.97 25.0084V25.6119H97.9414V25.0084ZM109.044 13.7827C110.766 13.0804 111.627 11.7527 111.627 9.79941C111.627 7.84617 110.855 6.65008 109.309 5.95876C108.482 5.58567 107.389 5.4101 106.031 5.4101C105.115 5.4101 104.552 5.47594 104.343 5.60762C104.133 5.7393 104.034 6.04655 104.034 6.52937V14.507C106.374 14.4192 108.04 14.1778 109.044 13.7827Z" fill="#002C55"/>
<path d="M119.828 25.063C121.153 24.9533 121.969 24.7228 122.289 24.3607C122.609 23.9986 122.764 23.1317 122.764 21.76V7.69229C122.764 6.51814 122.587 5.76099 122.234 5.42082C121.881 5.08064 121.075 4.86118 119.828 4.78436V4.18083H129.077V4.78436C127.808 4.8502 126.991 5.0587 126.616 5.42082C126.252 5.78293 126.064 6.54009 126.064 7.69229V14.3311C128.062 12.6303 129.695 11.1818 130.964 9.9857C133.238 7.83494 134.375 6.4523 134.375 5.8378C134.375 5.40984 134.187 5.12454 133.79 4.98188C133.403 4.8502 132.852 4.77339 132.145 4.77339V4.16986H140.655V4.77339C139.617 4.87215 138.8 5.06967 138.204 5.37692C137.608 5.6732 136.781 6.32062 135.721 7.33017L129.386 13.1899L137.123 21.5296C138.536 23.022 139.485 23.9657 139.992 24.3388C140.5 24.7118 141.251 24.9533 142.233 25.074V25.6226H132.3V25.074C133.194 25.041 133.812 24.9752 134.121 24.8655C134.441 24.7557 134.595 24.5363 134.595 24.2071C134.595 24.0315 134.496 23.7572 134.286 23.3841C134.077 23.011 133.757 22.583 133.315 22.1002L127.057 15.3626L126.053 16.2844V22.1441C126.053 23.3512 126.241 24.1083 126.605 24.4375C126.969 24.7557 127.764 24.9752 128.989 25.074V25.6226H119.828V25.074V25.063Z" fill="#002C55"/>
<path d="M150.797 4.18083V4.78436C150.157 4.80631 149.693 4.86118 149.417 4.95994C148.932 5.13551 148.689 5.46471 148.689 5.93656C148.689 6.14505 148.722 6.35354 148.777 6.55106C148.832 6.74858 148.921 7.01194 149.042 7.33017L153.744 19.5105L157.176 10.4356L155.653 6.46328C155.366 5.75001 154.936 5.26719 154.373 5.02578C154.031 4.88312 153.523 4.79534 152.839 4.78436V4.18083H161.536V4.78436C160.719 4.78436 160.156 4.8502 159.858 4.95994C159.372 5.13551 159.13 5.5086 159.13 6.06824C159.13 6.25478 159.152 6.41938 159.196 6.56204C159.24 6.70469 159.339 7.00097 159.516 7.4399L164.207 19.5873L168.268 8.59209C168.5 7.96662 168.654 7.41795 168.743 6.93513C168.798 6.6608 168.82 6.44133 168.82 6.26576C168.82 5.66223 168.533 5.24524 167.959 5.0148C167.639 4.88312 167.164 4.79534 166.535 4.77339V4.16986H172.981V4.77339C172.396 4.86118 171.954 4.99286 171.645 5.16843C171.094 5.47568 170.685 6.0024 170.409 6.74858L167.01 16.4051L165.697 20.136L163.644 25.9847H163.136L161.712 22.2758L157.949 12.3011L152.96 25.9847H152.474L150.057 19.2801L147.32 11.6866C146.194 8.55917 145.4 6.63885 144.958 5.92559C144.517 5.21232 143.81 4.82826 142.861 4.78436V4.18083H150.819H150.797Z" fill="#002C55"/>
<path d="M170.244 25.6117V25.0081C171.083 24.9094 171.701 24.6021 172.12 24.0644C172.54 23.5267 173.257 22.0783 174.273 19.6861L181.038 3.7858H181.689L189.779 22.1441C190.32 23.3621 190.751 24.1083 191.071 24.4046C191.391 24.7009 191.932 24.8874 192.693 24.9972V25.6007H184.438V24.9972C185.387 24.9094 185.994 24.8106 186.27 24.6899C186.546 24.5692 186.678 24.2729 186.678 23.8011C186.678 23.6474 186.623 23.3621 186.523 22.9671C186.424 22.5721 186.27 22.1441 186.082 21.7052L184.78 18.5888H176.226C175.387 20.7066 174.88 22.0014 174.714 22.4733C174.549 22.9451 174.471 23.3073 174.471 23.5816C174.471 24.1303 174.692 24.5034 175.133 24.7118C175.409 24.8326 175.928 24.9313 176.69 24.9972V25.6007H170.255L170.244 25.6117ZM184.228 17.2939L180.508 8.37263L176.767 17.2939H184.228Z" fill="#002C55"/>
<path d="M200.031 4.18085V4.78438C199.27 4.76243 198.696 4.8173 198.321 4.95995C197.945 5.1026 197.747 5.38791 197.747 5.84879C197.747 5.98047 197.78 6.15604 197.846 6.36453C197.912 6.57302 198.056 6.84735 198.276 7.17655L203.055 14.1665L207.713 7.06682C207.901 6.75957 208.022 6.50718 208.088 6.30966C208.154 6.11215 208.176 5.95852 208.176 5.87073C208.176 5.40985 207.934 5.1026 207.437 4.94898C207.139 4.85022 206.631 4.80632 205.914 4.79535V4.19182H213.011V4.79535C212.359 4.82827 211.774 5.02579 211.256 5.37694C210.45 5.93657 209.556 6.97903 208.552 8.49335L203.751 15.8016V22.1002C203.751 23.3512 203.949 24.1303 204.358 24.4485C204.766 24.7558 205.682 24.9533 207.095 25.0191V25.6226H197.184V25.0191C198.652 24.9313 199.568 24.7119 199.921 24.3607C200.274 24.0096 200.451 23.1317 200.451 21.7162V16.0978L196.201 9.88695C194.734 7.74716 193.696 6.3755 193.111 5.77197C192.515 5.16844 191.798 4.83924 190.959 4.79535V4.19182H200.042L200.031 4.18085Z" fill="#002C55"/>
<path fill-rule="evenodd" clip-rule="evenodd" d="M36.3103 20.9151C34.8424 16.4051 32.0942 14.0019 28.2754 13.3655C30.7256 2.62262 25.9908 4.70754 24.1145 7.26431C27.3594 5.40983 27.9223 7.42891 26.7634 11.0501C22.4811 6.17796 21.4657 7.82395 18.1767 11.8511C14.8877 7.82395 13.8723 6.17796 9.59005 11.0501C8.42015 7.42891 8.98303 5.40983 12.2279 7.26431C10.3516 4.69657 5.61679 2.62262 8.06697 13.3655C4.24822 13.9909 1.50005 16.3941 0.0321501 20.9151C-0.232734 16.833 1.00339 13.157 5.21947 10.3259C4.73384 3.42366 7.63653 -0.13168 13.8723 5.43178C14.2917 5.35496 14.7001 5.40983 15.0974 5.57443C14.358 3.92844 13.0004 2.40315 10.6496 2.15076C14.4794 1.14122 17.1834 2.23855 18.1657 5.38788C19.159 2.23855 21.863 1.13025 25.6818 2.15076C23.3309 2.40315 21.9734 3.92844 21.2339 5.57443C21.6423 5.40983 22.0396 5.35496 22.459 5.43178C28.7059 -0.13168 31.5975 3.42366 31.1119 10.3259C35.328 13.1679 36.5531 16.833 36.2992 20.9151M18.1546 40.5134C14.3249 36.0692 6.577 35.3998 6.74255 25.6885C1.56627 38.5052 14.3469 40.2281 18.1546 46.011C21.9624 40.2281 34.732 38.5052 29.5667 25.6885C29.7323 35.3998 21.9955 36.0692 18.1546 40.5134ZM18.1546 2.89695C18.552 2.00811 19.2473 1.31679 20.362 0.910782C19.7771 0.197519 18.9603 0 18.1546 0C17.349 0 16.5322 0.208492 15.9473 0.910782C17.062 1.32777 17.7573 2.01908 18.1546 2.89695ZM32.2156 33.271C34.0918 28.3001 33.3303 24.1741 29.1915 21.1126C28.75 22.3965 27.6353 23.1317 26.8627 24.1522C27.9885 26.4785 27.9885 29.0463 24.556 30.2863C24.6002 33.7867 20.2958 34.7195 18.1657 36.9251C16.0356 34.7085 11.7312 33.7867 11.7753 30.2863C8.33185 29.0573 8.34289 26.4895 9.46865 24.1522C8.68503 23.1427 7.58135 22.4074 7.12884 21.1126C2.99002 24.1741 2.21744 28.3111 4.10474 33.271C0.197703 28.1355 0.683324 21.5844 6.55492 16.9208C5.58368 16.5367 4.52415 16.5038 3.33217 16.9976C5.32983 15.209 7.47098 14.5725 9.81079 15.4833C10.2192 17.0305 6.63218 19.3569 11.3228 21.4308C12.8901 19.5654 14.6008 18.0072 14.4573 16.3502C13.8172 16.6355 13.0336 16.7343 12.1947 15.7686C11.5988 15.0883 10.9917 14.4299 10.0426 14.1226C13.0446 13.4752 16.1018 13.6617 15.6272 17.3817C15.274 20.125 13.2984 21.2662 12.0292 23.4389C9.96531 26.9723 12.1506 28.7829 15.3071 27.3893C18.9051 25.7982 16.3115 24.6789 15.4175 23.9547C13.4861 22.3855 14.1372 21.3979 15.5168 21.8259C16.5543 22.1331 16.8413 22.6708 18.1767 22.6708C19.5122 22.6708 19.7991 22.1441 20.8366 21.8259C22.2272 21.3979 22.8784 22.3855 20.9359 23.9547C20.053 24.6789 17.4483 25.7982 21.0463 27.3893C24.1918 28.7829 26.3881 26.9723 24.3242 23.4389C23.066 21.2772 21.0794 20.136 20.7262 17.3817C20.2406 13.6617 23.2978 13.4862 26.3109 14.1226C25.3617 14.4299 24.7547 15.0883 24.1587 15.7686C23.3309 16.7343 22.5363 16.6355 21.9072 16.3502C21.7637 18.0072 23.4634 19.5654 25.0416 21.4308C29.7323 19.3459 26.1453 17.0196 26.5537 15.4833C28.8825 14.5615 31.0236 15.209 33.0213 16.9976C31.8293 16.5038 30.7698 16.5367 29.7985 16.9208C35.6591 21.5844 36.1557 28.1355 32.2487 33.282M21.3333 29.0573C20.2296 28.4537 19.0928 28.0587 18.1878 27.1808C17.2717 28.0587 16.1349 28.4537 15.0423 29.0573C12.0733 30.6703 15.9914 32.1298 18.1878 33.9294C20.3951 32.1407 24.3132 30.6703 21.3333 29.0573Z" fill="#002C55"/>
<path fill-rule="evenodd" clip-rule="evenodd" d="M36.3102 20.9151C34.8424 16.4051 32.0942 14.0019 28.2754 13.3655C30.7256 2.62262 25.9908 4.70754 24.1145 7.26431C27.3594 5.40983 27.9222 7.42891 26.7634 11.0501C22.4811 6.17796 21.4657 7.82395 18.1767 11.8511C14.8877 7.82395 13.8723 6.17796 9.59005 11.0501C8.42015 7.42891 8.98303 5.40983 12.2279 7.26431C10.3516 4.69657 5.61679 2.62262 8.06697 13.3655C4.24822 13.9909 1.50005 16.3941 0.0321501 20.9151C-0.232734 16.833 1.00339 13.157 5.21947 10.3259C4.73384 3.42366 7.63653 -0.13168 13.8723 5.43178C14.2917 5.35496 14.7001 5.40983 15.0974 5.57443C14.358 3.92844 13.0004 2.40315 10.6496 2.15076C14.4794 1.14122 17.1834 2.23855 18.1657 5.38788C19.159 2.23855 21.863 1.13025 25.6818 2.15076C23.3309 2.40315 21.9734 3.92844 21.2339 5.57443C21.6423 5.40983 22.0396 5.35496 22.459 5.43178C28.7059 -0.13168 31.5975 3.42366 31.1119 10.3259C35.328 13.1679 36.5531 16.833 36.2992 20.9151M18.1546 40.5134C14.3249 36.0692 6.577 35.3998 6.74255 25.6885C1.56627 38.5052 14.3469 40.2281 18.1546 46.011C21.9624 40.2281 34.732 38.5052 29.5667 25.6885C29.7323 35.3998 21.9955 36.0692 18.1546 40.5134ZM18.1546 2.89695C18.552 2.00811 19.2473 1.31679 20.362 0.910782C19.7771 0.197519 18.9603 0 18.1546 0C17.349 0 16.5322 0.208492 15.9473 0.910782C17.062 1.32777 17.7573 2.01908 18.1546 2.89695ZM32.2156 33.271C34.0918 28.3001 33.3303 24.1741 29.1915 21.1126C28.75 22.3965 27.6353 23.1317 26.8627 24.1522C27.9885 26.4785 27.9885 29.0463 24.556 30.2863C24.6002 33.7867 20.2958 34.7195 18.1657 36.9251C16.0356 34.7085 11.7312 33.7867 11.7753 30.2863C8.33185 29.0573 8.34289 26.4895 9.46865 24.1522C8.68503 23.1427 7.58135 22.4074 7.12884 21.1126C2.99002 24.1741 2.21744 28.3111 4.10474 33.271C0.197703 28.1355 0.683323 21.5844 6.55492 16.9208C5.58368 16.5367 4.52414 16.5038 3.33217 16.9976C5.32983 15.209 7.47098 14.5725 9.81079 15.4833C10.2192 17.0305 6.63218 19.3569 11.3228 21.4308C12.8901 19.5654 14.6008 18.0072 14.4573 16.3502C13.8172 16.6355 13.0335 16.7343 12.1947 15.7686C11.5988 15.0883 10.9917 14.4299 10.0426 14.1226C13.0446 13.4752 16.1018 13.6617 15.6272 17.3817C15.274 20.125 13.2984 21.2662 12.0292 23.4389C9.96531 26.9723 12.1506 28.7829 15.3071 27.3893C18.9051 25.7982 16.3115 24.6789 15.4175 23.9547C13.4861 22.3855 14.1372 21.3979 15.5168 21.8259C16.5543 22.1331 16.8413 22.6708 18.1767 22.6708C19.5122 22.6708 19.7991 22.1441 20.8366 21.8259C22.2272 21.3979 22.8784 22.3855 20.9359 23.9547C20.053 24.6789 17.4483 25.7982 21.0463 27.3893C24.1918 28.7829 26.3881 26.9723 24.3242 23.4389C23.066 21.2772 21.0794 20.136 20.7262 17.3817C20.2406 13.6617 23.2978 13.4862 26.3109 14.1226C25.3617 14.4299 24.7547 15.0883 24.1587 15.7686C23.3309 16.7343 22.5363 16.6355 21.9072 16.3502C21.7637 18.0072 23.4634 19.5654 25.0416 21.4308C29.7323 19.3459 26.1453 17.0196 26.5537 15.4833C28.8825 14.5615 31.0236 15.209 33.0213 16.9976C31.8293 16.5038 30.7698 16.5367 29.7985 16.9208C35.6591 21.5844 36.1557 28.1355 32.2487 33.282M21.3333 29.0573C20.2296 28.4537 19.0928 28.0587 18.1878 27.1808C17.2717 28.0587 16.1349 28.4537 15.0423 29.0573C12.0733 30.6703 15.9914 32.1298 18.1878 33.9294C20.3951 32.1407 24.3132 30.6703 21.3333 29.0573Z" fill="#002C55"/>
<path d="M46.8848 38.7686V10.4685" stroke="#002C55" stroke-width="0.52" stroke-miterlimit="10"/>
</g>
<defs>
<clipPath id="clip0_294_6688">
<rect width="213" height="46" fill="white"/>
</clipPath>
</defs>
</svg>
